<svg
   viewBox="0 0 1200 873.33331"
   height="873.33331"
   width="1200"
   xml:space="preserve"
   id="svg2"
   version="1.1"><metadata
     id="metadata8"><rdf:RDF><cc:Work
         rdf:about=""><dc:format>image/svg+xml</dc:format><dc:type
           rdf:resource="http://purl.org/dc/dcmitype/StillImage" /></cc:Work></rdf:RDF></metadata><defs
     id="defs6"><clipPath
       id="clipPath18"
       clipPathUnits="userSpaceOnUse"><path
         id="path16"
         d="M 0,655 H 900 V 0 H 0 Z" /></clipPath><clipPath
       id="clipPath26"
       clipPathUnits="userSpaceOnUse"><path
         id="path24"
         d="M 19.24,403.039 H 759.588 V 189.041 H 19.24 Z" /></clipPath><clipPath
       id="clipPath44"
       clipPathUnits="userSpaceOnUse"><path
         id="path42"
         d="M 0,655 H 900 V 0 H 0 Z" /></clipPath><clipPath
       id="clipPath52"
       clipPathUnits="userSpaceOnUse"><path
         id="path50"
         d="M 19.24,414.92 H 477.76 V 403.04 H 19.24 Z" /></clipPath><clipPath
       id="clipPath68"
       clipPathUnits="userSpaceOnUse"><path
         id="path66"
         d="M 559.52,414.92 H 759.76 V 403.04 H 559.52 Z" /></clipPath><radialGradient
       id="radialGradient96"
       spreadMethod="pad"
       gradientTransform="matrix(136.69003,0,0,-273.38007,278.62,357.27921)"
       gradientUnits="userSpaceOnUse"
       r="1"
       cy="0"
       cx="0"
       fy="0"
       fx="0"><stop
         id="stop90"
         offset="0"
         style="stop-opacity:1;stop-color:#fcf4b4" /><stop
         id="stop92"
         offset="0.52666307"
         style="stop-opacity:1;stop-color:#fcf4b4" /><stop
         id="stop94"
         offset="1"
         style="stop-opacity:1;stop-color:#ffde68" /></radialGradient><clipPath
       id="clipPath106"
       clipPathUnits="userSpaceOnUse"><path
         id="path104"
         d="M 0,655 H 900 V 0 H 0 Z" /></clipPath><linearGradient
       id="linearGradient206"
       spreadMethod="pad"
       gradientTransform="matrix(259.35828,-149.74057,-149.74057,-259.35828,165.67284,541.65015)"
       gradientUnits="userSpaceOnUse"
       y2="0"
       x2="1"
       y1="0"
       x1="0"><stop
         id="stop200"
         offset="0"
         style="stop-opacity:1;stop-color:#ffde68" /><stop
         id="stop202"
         offset="0.47333693"
         style="stop-opacity:1;stop-color:#fcf4b4" /><stop
         id="stop204"
         offset="1"
         style="stop-opacity:1;stop-color:#fcf4b4" /></linearGradient><clipPath
       id="clipPath216"
       clipPathUnits="userSpaceOnUse"><path
         id="path214"
         d="M 0,655 H 900 V 0 H 0 Z" /></clipPath></defs><g
     transform="matrix(1.3333333,0,0,-1.3333333,0,873.33333)"
     id="g10"><g
       id="g12"><g
         clip-path="url(#clipPath18)"
         id="g14"><g
           id="g20"><g
             id="g22" /><g
             id="g34"><g
               style="opacity:0.91000402"
               id="g32"
               clip-path="url(#clipPath26)"><g
                 id="g30"
                 transform="translate(759.5889,403.0391)"><path
                   id="path28"
                   style="fill:#daddaa;fill-opacity:1;fill-rule:nonzero;stroke:none"
                   d="M 0,0 -312.004,-213.998 H -740.349 V 0 Z" /></g></g></g></g></g></g><path
       id="path36"
       style="fill:#cbc9b5;fill-opacity:1;fill-rule:nonzero;stroke:none"
       d="M 759.76,403.039 H 19.24 v 164.56 h 740.52 z" /><g
       id="g38"><g
         clip-path="url(#clipPath44)"
         id="g40"><g
           id="g46"><g
             id="g48" /><g
             id="g60"><g
               style="opacity:0.91000402"
               id="g58"
               clip-path="url(#clipPath52)"><g
                 id="g56"
                 transform="translate(475.3701,414.9199)"><path
                   id="path54"
                   style="fill:#e1ddd8;fill-opacity:1;fill-rule:nonzero;stroke:none"
                   d="M 0,0 C 0.52,-4.11 1.33,-8.09 2.39,-11.88 H -456.13 V 0 Z" /></g></g></g></g><g
           id="g62"><g
             id="g64" /><g
             id="g76"><g
               style="opacity:0.91000402"
               id="g74"
               clip-path="url(#clipPath68)"><g
                 id="g72"
                 transform="translate(759.7598,414.9199)"><path
                   id="path70"
                   style="fill:#e1ddd8;fill-opacity:1;fill-rule:nonzero;stroke:none"
                   d="m 0,0 v -11.88 h -200.24 c 1.06,3.79 1.87,7.77 2.39,11.88 z" /></g></g></g></g></g></g><g
       id="g78"><g
         id="g80"><g
           id="g86"><g
             id="g88"><path
               id="path98"
               style="fill:url(#radialGradient96);stroke:none"
               d="M 140.24,333.079 186,316.508 c 1.271,0.982 2.737,1.673 4.352,1.989 v 0 c 5.526,1.079 11.079,-2.577 13.737,-8.535 v 0 l 52.768,-19.105 c 6.447,6.239 18.56,8.082 30.567,3.885 v 0 c 12.311,-4.308 20.75,-13.649 21.565,-22.761 v 0 l 61.596,-22.304 c 1.61,1.377 3.621,2.376 5.887,2.821 v 0 c 6.679,1.302 13.085,-2.728 14.308,-9.003 v 0 c 0.075,-0.396 0.132,-0.792 0.163,-1.188 v 0 l 30.017,-10.868 4.4,161.04 -293.48,90.64 z" /></g></g></g></g><g
       id="mouse"><g
         clip-path="url(#clipPath106)"
         id="g102"><g
           transform="translate(425.3599,392.479)"
           id="g108"><path
             id="path110"
             style="fill:none;stroke:#faf09f;stroke-width:5;stroke-linecap:butt;stroke-linejoin:round;stroke-miterlimit:10;stroke-dasharray:none;stroke-opacity:1"
             d="m 0,0 -4.4,-161.04 -30.017,10.868 c -0.03,0.396 -0.088,0.792 -0.163,1.188 -1.223,6.275 -7.629,10.305 -14.308,9.003 -2.266,-0.445 -4.277,-1.444 -5.887,-2.821 l -61.596,22.304 c -0.814,9.112 -9.254,18.454 -21.565,22.761 -12.007,4.197 -24.12,2.354 -30.566,-3.885 l -52.769,19.104 c -2.658,5.958 -8.211,9.615 -13.737,8.537 -1.615,-0.317 -3.08,-1.008 -4.352,-1.989 l -45.76,16.57 -8.36,150.04 z" /></g><g
           transform="translate(359.2075,484.3027)"
           id="g112"><path
             id="path114"
             style="fill:#67727a;fill-opacity:1;fill-rule:nonzero;stroke:none"
             d="m 0,0 c -6.641,-10.315 -22.165,-12.149 -34.673,-4.096 -12.509,8.054 -17.265,22.945 -10.623,33.26 6.641,10.315 22.165,12.149 34.673,4.095 C 1.886,25.206 6.642,10.315 0,0" /></g><g
           transform="translate(384.5923,496.9355)"
           id="g116"><path
             id="path118"
             style="fill:#67727a;fill-opacity:1;fill-rule:nonzero;stroke:none"
             d="m 0,0 c -5.57,-8.651 -17.626,-10.81 -26.927,-4.822 -9.301,5.989 -12.325,17.857 -6.755,26.508 5.57,8.652 17.626,10.811 26.927,4.822 C 2.546,20.52 5.57,8.652 0,0" /></g><g
           transform="translate(351.0088,520.689)"
           id="g120"><path
             id="path122"
             style="fill:#67727a;fill-opacity:1;fill-rule:nonzero;stroke:none"
             d="m 0,0 c -5.57,-8.652 -17.625,-10.811 -26.927,-4.822 -9.301,5.989 -12.325,17.856 -6.755,26.508 5.571,8.651 17.626,10.81 26.927,4.822 C 2.546,20.52 5.57,8.651 0,0" /></g><g
           transform="translate(376.168,498.5244)"
           id="g124"><path
             id="path126"
             style="fill:#ffa272;fill-opacity:1;fill-rule:nonzero;stroke:none"
             d="m 0,0 c -4.07,-6.322 -13.09,-7.765 -20.146,-3.222 -7.056,4.543 -9.476,13.351 -5.406,19.673 4.071,6.322 13.091,7.765 20.147,3.222 C 1.651,15.13 4.071,6.322 0,0" /></g><g
           transform="translate(347.9077,518.4243)"
           id="g128"><path
             id="path130"
             style="fill:#ffa272;fill-opacity:1;fill-rule:nonzero;stroke:none"
             d="m 0,0 c -4.07,-6.322 -13.09,-7.765 -20.146,-3.222 -7.056,4.543 -9.476,13.351 -5.406,19.673 4.071,6.322 13.091,7.765 20.147,3.222 C 1.651,15.13 4.071,6.322 0,0" /></g><g
           transform="translate(355.8359,503.9448)"
           id="g132"><path
             id="path134"
             style="fill:#ffffff;fill-opacity:1;fill-rule:nonzero;stroke:none"
             d="m 0,0 c -2.571,-3.993 -7.125,-5.64 -10.172,-3.678 -3.047,1.962 -3.432,6.789 -0.862,10.782 2.571,3.993 7.125,5.64 10.172,3.678 C 2.185,8.82 2.571,3.993 0,0" /></g><g
           transform="translate(344.8022,511.0488)"
           id="g136"><path
             id="path138"
             style="fill:#ffffff;fill-opacity:1;fill-rule:nonzero;stroke:none"
             d="m 0,0 c -2.571,-3.993 -7.125,-5.64 -10.172,-3.678 -3.047,1.962 -3.432,6.789 -0.862,10.782 2.571,3.993 7.125,5.64 10.172,3.678 C 2.185,8.82 2.571,3.993 0,0" /></g><g
           transform="translate(349.2905,507.9272)"
           id="g140"><path
             id="path142"
             style="fill:#000000;fill-opacity:1;fill-rule:nonzero;stroke:none"
             d="m 0,0 c -0.65,-1.865 -2.061,-3.085 -3.15,-2.727 -1.089,0.359 -1.445,2.162 -0.795,4.026 0.65,1.865 2.061,3.085 3.15,2.726 C 0.294,3.667 0.65,1.864 0,0" /></g><g
           transform="translate(341.9858,511.7915)"
           id="g144"><path
             id="path146"
             style="fill:#000000;fill-opacity:1;fill-rule:nonzero;stroke:none"
             d="m 0,0 c -1.205,-1.569 -2.914,-2.272 -3.817,-1.57 -0.904,0.703 -0.66,2.545 0.544,4.114 1.205,1.57 2.913,2.272 3.817,1.57 C 1.448,3.411 1.204,1.569 0,0" /></g><g
           transform="translate(344.0146,497.0674)"
           id="g148"><path
             id="path150"
             style="fill:#000000;fill-opacity:1;fill-rule:nonzero;stroke:none"
             d="m 0,0 c -1.5,-2.329 -5.575,-2.376 -9.103,-0.104 -3.528,2.271 -5.172,6 -3.673,8.33 1.5,2.329 5.576,2.376 9.104,0.105 C -0.145,6.059 1.5,2.329 0,0" /></g><g
           transform="translate(351.7578,491.8691)"
           id="g152"><path
             id="path154"
             style="fill:#a52c20;fill-opacity:1;fill-rule:nonzero;stroke:none"
             d="m 0,0 c -5.516,-8.567 -16.098,-11.581 -23.636,-6.728 -4.89,3.148 -7.294,8.83 -6.876,14.774 1.48,-3.442 4.007,-6.535 7.463,-8.759 8.135,-5.239 18.532,-3.828 24.3,2.95 C 0.888,1.482 0.469,0.729 0,0" /></g><g
           transform="translate(326.0078,503.5474)"
           id="g156"><path
             id="path158"
             style="fill:none;stroke:#000000;stroke-width:0.5;stroke-linecap:round;stroke-linejoin:miter;stroke-miterlimit:10;stroke-dasharray:none;stroke-opacity:1"
             d="m 0,0 c -1.289,2.246 -4.65,7.377 -11.224,10.636 -5.012,2.485 -9.658,2.774 -12.2,2.741" /></g><g
           transform="translate(326.1021,500.5039)"
           id="g160"><path
             id="path162"
             style="fill:none;stroke:#000000;stroke-width:0.5;stroke-linecap:round;stroke-linejoin:miter;stroke-miterlimit:10;stroke-dasharray:none;stroke-opacity:1"
             d="M 0,0 C -2.291,2.077 -7.804,6.483 -16.263,7.914 -23.139,9.077 -28.802,7.738 -31.758,6.812" /></g><g
           transform="translate(324.1646,500.0469)"
           id="g164"><path
             id="path166"
             style="fill:none;stroke:#000000;stroke-width:0.5;stroke-linecap:round;stroke-linejoin:miter;stroke-miterlimit:10;stroke-dasharray:none;stroke-opacity:1"
             d="M 0,0 C -2.058,1.162 -6.183,3.118 -11.812,3.344 -17.429,3.569 -21.803,1.962 -24.016,0.975" /></g><g
           transform="translate(347.2056,491.1782)"
           id="g168"><path
             id="path170"
             style="fill:none;stroke:#000000;stroke-width:0.5;stroke-linecap:round;stroke-linejoin:miter;stroke-miterlimit:10;stroke-dasharray:none;stroke-opacity:1"
             d="m 0,0 c 2.834,-0.634 8.387,-2.297 13.552,-7.021 3.759,-3.439 5.847,-7.16 6.964,-9.597" /></g><g
           transform="translate(348.9453,487.501)"
           id="g172"><path
             id="path174"
             style="fill:none;stroke:#000000;stroke-width:0.5;stroke-linecap:round;stroke-linejoin:miter;stroke-miterlimit:10;stroke-dasharray:none;stroke-opacity:1"
             d="m 0,0 c 2.438,-1.923 6.271,-5.468 9.287,-11.093 2.723,-5.08 3.682,-9.808 4.056,-12.838" /></g><g
           transform="translate(346.3286,485.3506)"
           id="g176"><path
             id="path178"
             style="fill:none;stroke:#000000;stroke-width:0.5;stroke-linecap:round;stroke-linejoin:miter;stroke-miterlimit:10;stroke-dasharray:none;stroke-opacity:1"
             d="m 0,0 c 1.51,-1.504 3.309,-3.645 4.836,-6.523 3,-5.652 3.329,-11.088 3.28,-14.043" /></g><g
           transform="translate(332.3867,489.2134)"
           id="g180"><path
             id="path182"
             style="fill:#ffffff;fill-opacity:1;fill-rule:nonzero;stroke:none"
             d="m 0,0 -0.971,-2.784 -2.13,0.519 1.552,2.411 z" /></g><g
           transform="translate(329.6758,490.1064)"
           id="g184"><path
             id="path186"
             style="fill:#ffffff;fill-opacity:1;fill-rule:nonzero;stroke:none"
             d="m 0,0 -1.552,-2.41 -2.323,1.496 2.133,2.036 z" /></g></g></g><g
       id="g188"><g
         id="g190"><g
           id="g196"><g
             id="g198"><path
               id="path208"
               style="fill:url(#linearGradient206);stroke:none"
               d="m 203.6,521.839 c -36.265,-14.506 -71.72,-38.72 -71.72,-38.72 v 0 l 293.48,-90.64 -45.505,52.738 c -0.806,-0.105 -1.624,-0.158 -2.455,-0.158 v 0 c -10.569,0 -19.141,8.572 -19.141,19.14 v 0 c 0,1.808 0.251,3.555 0.718,5.214 v 0 l -13.032,15.106 c -2.79,-1.589 -6.024,-2.5 -9.465,-2.5 v 0 c -10.569,0 -19.14,8.571 -19.14,19.141 v 0 c 0,4.452 1.518,8.544 4.07,11.796 v 0 l -28.93,33.523 c 0,0 -55.88,-11.44 -88.88,-24.64" /></g></g></g></g><g
       id="g210"><g
         clip-path="url(#clipPath216)"
         id="g212"><g
           transform="translate(425.3599,392.479)"
           id="g218"><path
             id="path220"
             style="fill:none;stroke:#faf09f;stroke-width:5;stroke-linecap:round;stroke-linejoin:round;stroke-miterlimit:10;stroke-dasharray:none;stroke-opacity:1"
             d="m 0,0 -293.48,90.64 c 0,0 35.456,24.214 71.72,38.72 33,13.2 88.88,24.64 88.88,24.64 l 28.93,-33.523 c -2.552,-3.252 -4.07,-7.344 -4.07,-11.797 0,-10.569 8.571,-19.14 19.14,-19.14 3.441,0 6.675,0.911 9.464,2.5 l 13.033,-15.106 c -0.466,-1.659 -0.717,-3.405 -0.717,-5.214 0,-10.569 8.571,-19.14 19.14,-19.14 0.832,0 1.65,0.053 2.455,0.159 z" /></g><g
           transform="translate(377.1802,332.0894)"
           id="g222"><path
             id="path224"
             style="fill:#fdc004;fill-opacity:1;fill-rule:nonzero;stroke:none"
             d="m 0,0 c 0,-7.264 -4.105,-13.649 -10.31,-17.307 2.878,3.456 4.59,7.78 4.59,12.467 0,11.362 -10.046,20.57 -22.44,20.57 -4.466,0 -8.633,-1.198 -12.131,-3.263 4.096,4.925 10.569,8.103 17.851,8.103 C -10.045,20.57 0,11.362 0,0" /></g><g
           transform="translate(224.0601,385.769)"
           id="g226"><path
             id="path228"
             style="fill:#fdc004;fill-opacity:1;fill-rule:nonzero;stroke:none"
             d="m 0,0 c 0,-8.538 -4.886,-15.911 -11.959,-19.364 4.305,3.928 7.016,9.64 7.016,15.999 0,11.848 -9.406,21.45 -21.011,21.45 -3.237,0 -6.311,-0.748 -9.05,-2.085 3.712,3.389 8.618,5.45 13.994,5.45 C -9.405,21.45 0,11.848 0,0" /></g><g
           transform="translate(270.2881,487.0649)"
           id="g230"><path
             id="path232"
             style="fill:#fdc004;fill-opacity:1;fill-rule:nonzero;stroke:none"
             d="m 0,0 c -2.727,-0.89 -5.802,-1.551 -9.078,-1.908 -12.077,-1.313 -22.35,2.027 -22.941,7.464 -0.563,5.175 7.843,10.378 19.063,11.996 C -20.283,15.18 -25.109,11.203 -24.678,7.24 -24.087,1.802 -13.814,-1.538 -1.737,-0.224 -1.151,-0.161 -0.574,-0.089 0,0" /></g><g
           transform="translate(321.8809,454.959)"
           id="g234"><path
             id="path236"
             style="fill:#fdc004;fill-opacity:1;fill-rule:nonzero;stroke:none"
             d="m 0,0 c -1.932,-1.452 -5.412,-2.42 -9.381,-2.42 -6.076,0 -11,2.266 -11,5.06 0,1.888 2.249,3.533 5.579,4.4 -1.025,-0.766 -1.619,-1.672 -1.619,-2.64 0,-2.794 4.924,-5.06 11,-5.06 1.971,0 3.819,0.238 5.421,0.66" /></g><g
           transform="translate(252.8096,328.3271)"
           id="g238"><path
             id="path240"
             style="fill:#fdc004;fill-opacity:1;fill-rule:nonzero;stroke:none"
             d="m 0,0 c 4.308,3.225 6.64,8.729 5.54,14.362 -1.532,7.845 -9.148,12.962 -17.011,11.427 -0.994,-0.194 -1.945,-0.484 -2.842,-0.867 1.694,1.276 3.7,2.191 5.922,2.626 C -0.528,29.084 7.088,23.967 8.62,16.122 9.961,9.267 6.213,2.596 0,0" /></g><g
           transform="translate(366.312,410.7173)"
           id="g242"><path
             id="path244"
             style="fill:#ffdb38;fill-opacity:1;fill-rule:nonzero;stroke:none"
             d="M 0,0 -0.066,0.018 C -2.979,-6.301 -11.348,-9.249 -19.488,-6.587 -27.417,-3.995 -32.375,3.014 -31.35,9.68 l -0.229,0.07 c 3.573,5.214 11.519,7.3 19.25,4.638 C -5.056,11.88 -0.22,5.944 0,0" /></g><g
           transform="translate(366.312,410.7173)"
           id="g246"><path
             id="path248"
             style="fill:none;stroke:#faf09f;stroke-width:5;stroke-linecap:butt;stroke-linejoin:miter;stroke-miterlimit:10;stroke-dasharray:none;stroke-opacity:1"
             d="M 0,0 -0.066,0.018 C -2.979,-6.301 -11.348,-9.249 -19.488,-6.587 -27.417,-3.995 -32.375,3.014 -31.35,9.68 l -0.229,0.07 c 3.573,5.214 11.519,7.3 19.25,4.638 C -5.056,11.88 -0.22,5.944 0,0 Z" /></g><g
           transform="translate(228.4849,453.1978)"
           id="g250"><path
             id="path252"
             style="fill:#ffdb38;fill-opacity:1;fill-rule:nonzero;stroke:none"
             d="m 0,0 -0.021,0.007 c -2.961,-6.1 -13.595,-8.73 -24.293,-5.876 -11.071,2.954 -18.016,10.671 -15.51,17.227 0.091,0.233 0.188,0.465 0.306,0.69 l -0.232,0.07 c 3.93,5.518 14.59,7.268 24.832,3.836 C -5.272,12.731 0.795,5.99 0,0" /></g><g
           transform="translate(228.4849,453.1978)"
           id="g254"><path
             id="path256"
             style="fill:none;stroke:#faf09f;stroke-width:5;stroke-linecap:butt;stroke-linejoin:miter;stroke-miterlimit:10;stroke-dasharray:none;stroke-opacity:1"
             d="m 0,0 -0.021,0.007 c -2.961,-6.1 -13.595,-8.73 -24.293,-5.876 -11.071,2.954 -18.016,10.671 -15.51,17.227 0.091,0.233 0.188,0.465 0.306,0.69 l -0.232,0.07 c 3.93,5.518 14.59,7.268 24.832,3.836 C -5.272,12.731 0.795,5.99 0,0 Z" /></g><g
           transform="translate(219.1167,382.4043)"
           id="g258"><path
             id="path260"
             style="fill:#ffdb38;fill-opacity:1;fill-rule:nonzero;stroke:none"
             d="m 0,0 c 0,-6.359 -2.711,-12.071 -7.016,-15.999 -2.739,-1.337 -5.813,-2.086 -9.051,-2.086 -11.604,0 -21.01,9.602 -21.01,21.45 0,6.359 2.711,12.071 7.016,15.999 2.74,1.338 5.813,2.086 9.051,2.086 C -9.405,21.45 0,11.848 0,0" /></g><g
           transform="translate(371.46,327.249)"
           id="g262"><path
             id="path264"
             style="fill:#ffdb38;fill-opacity:1;fill-rule:nonzero;stroke:none"
             d="m 0,0 c 0,-4.687 -1.711,-9.01 -4.589,-12.467 -3.498,-2.065 -7.665,-3.263 -12.131,-3.263 -12.395,0 -22.44,9.209 -22.44,20.57 0,4.687 1.712,9.011 4.589,12.467 3.498,2.065 7.665,3.263 12.131,3.263 C -10.045,20.57 0,11.362 0,0" /></g><g
           transform="translate(252.8096,328.3271)"
           id="g266"><path
             id="path268"
             style="fill:#ffdb38;fill-opacity:1;fill-rule:nonzero;stroke:none"
             d="m 0,0 c -0.897,-0.383 -1.848,-0.673 -2.842,-0.867 -7.863,-1.535 -15.484,3.582 -17.015,11.427 -1.1,5.632 1.232,11.136 5.544,14.362 0.897,0.383 1.848,0.673 2.842,0.867 C -3.608,27.324 4.008,22.207 5.54,14.362 6.64,8.729 4.308,3.225 0,0" /></g><g
           transform="translate(282.0112,497.3774)"
           id="g270"><path
             id="path272"
             style="fill:#ffdb38;fill-opacity:1;fill-rule:nonzero;stroke:none"
             d="m 0,0 c 0.431,-3.963 -4.395,-7.94 -11.723,-10.313 -0.574,-0.088 -1.151,-0.16 -1.737,-0.224 -12.077,-1.313 -22.35,2.027 -22.941,7.464 -0.431,3.963 4.395,7.94 11.722,10.312 0.575,0.09 1.152,0.161 1.738,0.225 C -10.864,8.777 -0.591,5.437 0,0" /></g><g
           transform="translate(323.5,457.5991)"
           id="g274"><path
             id="path276"
             style="fill:#ffdb38;fill-opacity:1;fill-rule:nonzero;stroke:none"
             d="m 0,0 c 0,-0.968 -0.594,-1.875 -1.619,-2.64 -1.602,-0.423 -3.45,-0.66 -5.421,-0.66 -6.076,0 -11,2.266 -11,5.06 0,0.968 0.594,1.874 1.619,2.64 1.602,0.422 3.45,0.66 5.421,0.66 C -4.924,5.06 0,2.794 0,0" /></g><g
           transform="translate(562.6401,426.3594)"
           id="g278"><path
             id="path280"
             style="fill:#a9ab9a;fill-opacity:1;fill-rule:nonzero;stroke:none"
             d="m 0,0 c 0,-8.241 -1.109,-16.108 -3.124,-23.32 h -7.559 c 1.504,6.353 2.323,13.16 2.323,20.24 0,34.751 -19.699,62.92 -44,62.92 -2.306,0 -4.572,-0.256 -6.781,-0.744 4.722,2.473 9.821,3.824 15.141,3.824 C -19.699,62.92 0,34.751 0,0" /></g><g
           transform="translate(554.2798,423.2793)"
           id="g282"><path
             id="path284"
             style="fill:#727571;fill-opacity:1;fill-rule:nonzero;stroke:none"
             d="m 0,0 c 0,-7.08 -0.818,-13.887 -2.323,-20.24 h -74.193 c -2.015,7.212 -3.124,15.079 -3.124,23.32 0,27.144 12.021,50.274 28.86,59.096 2.209,0.489 4.475,0.744 6.78,0.744 C -19.699,62.92 0,34.751 0,0" /></g></g></g></g></svg>